# xmcd
#
# Track frame offsets: 
#        175
#        12965
#        35502
#        52175
#        78682
#        97820
#        116782
#        130530
#        155090
#        169297
#
# Disc length: 2604 seconds
#
# Revision: 7
# Processed by: cddbd v1.5.2PL0 Copyright (c) Steve Scherf et al.
# Submitted via: ExactAudioCopy v1.0b1
#
DISCID=810a2a0a
DTITLE=Various Artist - Back To Back Hits
DYEAR=1995
DGENRE=Pop
TTITLE0=Al Green - Tired Of Being Alone
TTITLE1=Teddy Pendergrass - Love TKO
TTITLE2=Al Green - Take Me To The River
TTITLE3=Teddy Pendergrass - Turn Off The Lights
TTITLE4=Al Green - Here I Am (Come And Take Me)
TTITLE5=Teddy Pendergrass - Life Is A Song Worth Singing
TTITLE6=Al Green - Call Me (Come Back Home)
TTITLE7=Teddy Pendergrass - Close The Door
TTITLE8=Al Green - Livin' For You
TTITLE9=Teddy Pendergrass - Come Go With Me
EXTD=YEAR: 1995 ID3G:  13
EXTT0=Al Green\n
EXTT1=Teddy Pendergrass\n
EXTT2=Al Green\n
EXTT3=Al Green\n
EXTT4=Al Green\n
EXTT5=Teddy Pendergrass\n
EXTT6=Al Green\n
EXTT7=Teddy Pendergrass\n
EXTT8=Al Green\n
EXTT9=Teddy Pendergrass\n
PLAYORDER=
